<?xml version="1.0" encoding="UTF-8"?>
<svg width="21px" height="18px" viewBox="0 0 21 18" version="1.1" xmlns="http://www.w3.org/2000/svg" xmlns:xlink="http://www.w3.org/1999/xlink">
    <title>icon-arrow-right</title>
    <g id="icon-arrow-right" stroke="none" fill="none" fill-rule="evenodd" stroke-width="1">
        <g id="arrow-right" transform="translate(0, 0.0006)" fill="#000000">
            <path d="M12.4031246,0.310159447 L20.6531246,8.18515945 C20.8757808,8.39755035 21.0017803,8.69187808 21.0017803,8.99984718 C21.0017803,9.30781627 20.8757808,9.601722 20.6531246,9.81453491 L12.4031246,17.6895349 C11.9534061,18.1172693 11.2415621,18.1011446 10.812187,17.651449 C10.3829992,17.2061365 10.3991246,16.4912927 10.8502729,16.0605114 L17.0705845,10.1261361 L1.12546849,10.1261361 C0.504374743,10.1261361 0,9.62176061 0,9.00066686 C0,8.37957311 0.504374743,7.87613535 1.12546849,7.87613535 L17.0676563,7.87613535 L10.8473439,1.94176078 C10.3968744,1.51015973 10.3828118,0.795315983 10.8093746,0.348597291 C11.2406244,-0.101402995 11.9109371,-0.117340324 12.4031246,0.310159447 Z" id="Path" fill-rule="nonzero"></path>
        </g>
    </g>
</svg>